<svg version="1.2" xmlns="http://www.w3.org/2000/svg" viewBox="0 0 2000 600" width="2000" height="600">
	<title>vecteezy_initial-letter-b-and-house-logo-design-template-vector_25784333-ai</title>
	<style>
		.s0 { fill: #0cbab5 } 
	</style>
	<g id="_Artboards_">
	</g>
	<g id="Layer 1">
		<g id="&lt;Group&gt;">
		</g>
		<g id="&lt;Group&gt;">
			<g id="&lt;Group&gt;">
				<path id="&lt;Compound Path&gt;" class="s0" d="m515.4 238.3c-19.8-19.8-47.2-30.7-75.2-30h-125.7l-63.3 63.3 111.8 111.9 63.3-63.4v-63.1h-36.8v47.9l-26.5 26.5-59.8-59.8 26.5-26.5h111.3c18.2-0.5 35.5 6.3 48.4 19.2 25.7 25.7 25.6 67.4 0 93.1l-102.6 102.6-212.2-212.1 102.7-102.6c25.6-25.7 67.4-25.7 93 0 11.8 11.8 18.6 27.2 19.2 43.7v7.4h36.8v-1.2-0.5c0.8-28.1-10.1-55.6-30-75.4-40-40-105.1-40-145.1-0.1l-128.6 128.7 264.2 264.1 128.6-128.6c40-40 40-105.1 0-145.1z"/>
			</g>
		</g>
		<path id="bootbnb" class="s0" aria-label="bootbnb"  d="m741.6 323.5q0 15.4-5.3 28-5.2 12.7-14.3 21.9-9 9-21.2 14-12.1 5-26 5-13.8 0-26-5.1-12.1-5.1-21.3-14.3-9-9.1-14.2-21.7-5.3-12.7-5.3-27.8v-116.2h33.5v61q2.6-3.4 6.4-6.1 3.9-2.7 8.3-4.4 4.5-1.7 9.3-2.6 4.8-0.9 9.3-0.9 13.9 0 26 5.2 12.2 5.1 21.2 14.4 9.1 9.3 14.3 22 5.3 12.6 5.3 27.6zm-33.6 0q0-7.6-2.7-14.1-2.6-6.6-7.1-11.3-4.5-4.8-10.6-7.5-6-2.7-12.8-2.7-6.9 0-13 3.1-5.9 2.9-10.5 7.9-4.5 4.9-7 11.4-2.6 6.3-2.6 13.2 0 7.5 2.6 14 2.5 6.5 7 11.2 4.6 4.8 10.5 7.6 6.1 2.7 13 2.7 6.8 0 12.8-2.7 6.1-2.8 10.6-7.6 4.5-4.7 7.1-11.2 2.7-6.5 2.7-14zm178.3 0q0 14.6-5.2 27.3-5.3 12.6-14.3 21.9-9 9.1-21.2 14.5-12.1 5.2-26 5.2-13.8 0-26-5.2-12.1-5.4-21.3-14.5-9-9.3-14.3-21.9-5.2-12.7-5.2-27.3 0-14.9 5.2-27.6 5.3-12.7 14.3-21.9 9.2-9.2 21.3-14.5 12.2-5.2 26-5.2 13.9 0 26 5 12.2 4.8 21.2 14 9 9 14.3 21.9 5.2 12.6 5.2 28.3zm-33.5 0q0-8.1-2.7-14.6-2.6-6.5-7.1-11.2-4.5-4.7-10.6-7.2-6-2.6-12.8-2.6-6.9 0-13 2.6-6 2.5-10.5 7.2-4.4 4.7-6.9 11.2-2.6 6.5-2.6 14.6 0 7.5 2.6 14 2.5 6.5 6.9 11.2 4.5 4.8 10.5 7.6 6.1 2.7 13 2.7 6.8 0 12.8-2.6 6.1-2.5 10.6-7.2 4.5-4.6 7.1-11.2 2.7-6.6 2.7-14.5zm178.3 0q0 14.6-5.2 27.3-5.3 12.6-14.3 21.9-9.1 9.1-21.3 14.5-12.1 5.2-26 5.2-13.8 0-26-5.2-12.1-5.4-21.2-14.5-9-9.3-14.3-21.9-5.2-12.7-5.2-27.3 0-14.9 5.2-27.6 5.3-12.7 14.3-21.9 9.1-9.2 21.2-14.5 12.2-5.2 26-5.2 13.9 0 26 5 12.2 4.8 21.3 14 9 9 14.3 21.9 5.2 12.6 5.2 28.3zm-33.6 0q0-8.1-2.6-14.6-2.6-6.5-7.1-11.2-4.5-4.7-10.6-7.2-6-2.6-12.9-2.6-6.8 0-12.9 2.6-6 2.5-10.5 7.2-4.4 4.7-7 11.2-2.5 6.5-2.5 14.6 0 7.5 2.5 14 2.6 6.5 7 11.2 4.5 4.8 10.5 7.6 6.1 2.7 12.9 2.7 6.9 0 12.9-2.6 6.1-2.5 10.6-7.2 4.5-4.6 7.1-11.2 2.6-6.6 2.6-14.5zm141.9 66.5h-25.3q-12.1 0-22.7-4.5-10.6-4.7-18.7-12.6-7.9-8-12.5-18.7-4.6-10.6-4.6-22.7v-38.8h-16.2v-33.2h16.2v-52.2h33.2v52.2h50.6v33.2h-50.6v38.8q0 5.3 2 9.9 2 4.5 5.4 8 3.4 3.4 8 5.4 4.7 2 9.9 2h25.3zm149.5-66.5q0 15.3-5.2 28-5.3 12.7-14.3 21.9-9 9-21.3 14-12 5-26 5-13.7 0-26-5.1-12-5.1-21.2-14.3-9-9.1-14.3-21.7-5.2-12.7-5.2-27.8v-116.2h33.4v61q2.7-3.4 6.5-6.1 3.9-2.7 8.3-4.4 4.5-1.7 9.3-2.6 4.7-0.9 9.2-0.9 14 0 26 5.2 12.3 5.1 21.3 14.4 9 9.3 14.3 22 5.2 12.6 5.2 27.6zm-33.6 0q0-7.6-2.6-14.1-2.6-6.6-7.1-11.3-4.5-4.8-10.6-7.5-6-2.7-12.9-2.7-6.8 0-12.9 3.1-6 2.9-10.5 7.9-4.5 4.9-7.1 11.4-2.5 6.3-2.5 13.2 0 7.5 2.5 14 2.6 6.5 7.1 11.2 4.5 4.8 10.5 7.6 6.1 2.7 12.9 2.7 6.9 0 12.9-2.7 6.1-2.8 10.6-7.6 4.5-4.7 7.1-11.2 2.6-6.5 2.6-14zm85.4-8.2v74.7h-33.3v-130.7h8l11 12.7q8.1-7.4 18.2-11.3 10.2-4 21.3-4 12 0 22.6 4.6 10.6 4.6 18.6 12.6 7.9 7.9 12.4 18.7 4.7 10.6 4.7 22.7v74.7h-33.4v-74.7q0-5.1-1.9-9.7-2-4.6-5.4-8-3.4-3.4-7.9-5.4-4.5-1.9-9.7-1.9-5.2 0-9.8 1.9-4.7 2-8.1 5.4-3.4 3.4-5.4 8-1.9 4.6-1.9 9.7zm237 8.2q0 15.3-5.2 28-5.3 12.7-14.3 21.9-9 9-21.2 14-12.1 5-26 5-13.8 0-26-5.1-12.1-5.1-21.3-14.3-9-9.1-14.3-21.7-5.2-12.7-5.2-27.8v-116.2h33.4v61q2.7-3.4 6.5-6.1 3.9-2.7 8.3-4.4 4.5-1.7 9.3-2.6 4.7-0.9 9.3-0.9 13.9 0 26 5.2 12.2 5.1 21.2 14.4 9 9.3 14.3 22 5.2 12.6 5.2 27.6zm-33.5 0q0-7.6-2.7-14.1-2.6-6.6-7.1-11.3-4.5-4.8-10.6-7.5-6-2.7-12.8-2.7-6.9 0-13 3.1-6 2.9-10.5 7.9-4.5 4.9-7.1 11.4-2.5 6.3-2.5 13.2 0 7.5 2.5 14 2.6 6.5 7.1 11.2 4.5 4.8 10.5 7.6 6.1 2.7 13 2.7 6.8 0 12.8-2.7 6.1-2.8 10.6-7.6 4.5-4.7 7.1-11.2 2.7-6.5 2.7-14z"/>
	</g>
</svg>